<?xml version="1.0" encoding="UTF-8"?>
<svg xmlns="http://www.w3.org/2000/svg" width="1200" height="630" viewBox="0 0 1200 630">
  <rect width="1200" height="630" fill="#F7F7F7"/>
  <!-- geometric accents -->
  <rect x="60" y="80" width="440" height="320" rx="20" fill="#FFFFFF" opacity="0.6"/>
  <circle cx="980" cy="120" r="72" fill="#00E5FF" opacity="0.12"/>
  <rect x="860" y="460" width="220" height="80" rx="12" fill="#FF7A6B" opacity="0.10"/>

  <!-- decorative lines and shapes -->
  <rect x="100" y="430" width="200" height="6" rx="3" fill="#0B3D91" opacity="0.08"/>
  <rect x="320" y="470" width="360" height="6" rx="3" fill="#00E5FF" opacity="0.10"/>

  <!-- Title block -->
  <g font-family="Helvetica, Arial, system-ui, -apple-system, 'Segoe UI', Roboto, 'Noto Sans', 'Segoe UI Variable', sans-serif" fill="#0B3D91">
    <text x="100" y="170" font-size="56" font-weight="700">Things Are Moving Fast</text>
    <text x="100" y="220" font-size="22" font-weight="600" fill="#0B3D91" opacity="0.95">Generative UI and MCP Apps</text>
  </g>

  <!-- abstract device / UI illustration -->
  <g transform="translate(700,200)">
    <rect x="0" y="0" width="360" height="220" rx="18" fill="#FFFFFF" stroke="#E6E6E6" stroke-width="1"/>
    <rect x="18" y="18" width="170" height="44" rx="8" fill="#0B3D91" opacity="0.08"/>
    <rect x="200" y="18" width="140" height="44" rx="8" fill="#00E5FF" opacity="0.12"/>
    <rect x="18" y="80" width="322" height="110" rx="10" fill="#FFFFFF" />
    <rect x="30" y="96" width="120" height="12" rx="6" fill="#0B3D91" opacity="0.9"/>
    <rect x="30" y="118" width="240" height="10" rx="5" fill="#0B3D91" opacity="0.2"/>
    <rect x="30" y="136" width="180" height="10" rx="5" fill="#FF7A6B" opacity="0.18"/>
  </g>

  <!-- small label bottom-left -->
  <text x="28" y="602" font-family="Helvetica, Arial, sans-serif" font-size="14" fill="#000000" opacity="0.6">Beto Dias</text>

  <!-- Footer thin rule -->
  <rect x="60" y="612" width="1080" height="2" fill="#EAEAEA" opacity="0.9"/>

  <!-- Designer label -->
  <text x="980" y="602" font-family="Helvetica, Arial, sans-serif" font-size="12" fill="#0B3D91" opacity="0.12">Designer — Things Are Moving Fast v-auto</text>
</svg>